<svg xmlns="http://www.w3.org/2000/svg" viewBox="0 0 75 75" width="75" height="75">
	<style>
		tspan { white-space:pre }
		.shp0 { fill: #000000 } 
	</style>
	<g id="Layer">
		<path id="Layer" class="shp0" d="M18.69 58.68C15.82 58.68 13.65 60.85 13.65 63.72C13.65 66.59 15.82 68.92 18.69 68.92C21.57 68.92 23.89 66.59 23.89 63.72C23.89 60.85 21.57 58.68 18.69 58.68Z" />
		<path id="Layer" class="shp0" d="M57.25 58.68C54.38 58.68 52.05 60.93 52.05 63.8C52.05 66.67 54.38 69 57.25 69C60.12 69 62.45 66.67 62.45 63.8C62.45 60.93 60.12 58.68 57.25 58.68Z" />
		<path id="Layer" fill-rule="evenodd" class="shp0" d="M67.53 43.32L18.77 43.32L16.21 51L64.85 51C66.27 51 67.41 52.14 67.41 53.56C67.41 54.97 66.27 56.28 64.85 56.28L16.53 56.28C15.12 56.28 11.09 56.12 11.09 51.16C11.09 50.84 13.65 45.88 13.65 43.32C13.65 32.03 9.96 12.6 9.96 12.6L0.85 12.6C0.85 7.48 8.53 7.48 8.53 7.48C13.81 7.48 13.65 12.72 13.65 12.72L14.74 15.35L67.58 15.28C72.22 15.28 72.48 20.63 72.48 20.63L72.53 38.39C72.53 43.35 67.53 43.32 67.53 43.32ZM26.43 35.8L26.43 33.24C26.43 31.82 25.28 30.68 23.87 30.68L21.33 30.68C19.92 30.68 18.77 31.82 18.77 33.24L18.77 35.8C18.77 38.2 18.77 38.2 21.33 38.26C21.98 38.28 22.78 38.32 23.79 38.36L23.87 38.36C25.28 38.36 26.43 37.21 26.43 35.8L26.43 35.8ZM26.43 23C26.43 21.58 25.28 20.44 23.87 20.44L21.31 20.44C19.89 20.44 18.75 21.58 18.75 23L18.75 25.56C18.75 26.97 19.89 28.12 21.31 28.12L23.87 28.12C25.28 28.12 26.43 26.97 26.43 25.56L26.43 23ZM36.67 33.24C36.67 31.82 35.52 30.68 34.11 30.68L31.55 30.68C30.13 30.68 28.99 31.82 28.99 33.24L28.99 35.8C28.99 37.21 30.13 38.36 31.55 38.36L34.11 38.36C35.52 38.36 36.67 37.21 36.67 35.8L36.67 33.24ZM36.67 23C36.67 21.58 35.52 20.44 34.11 20.44L31.55 20.44C30.13 20.44 28.99 21.58 28.99 23L28.99 25.56C28.99 26.97 30.13 28.12 31.55 28.12L34.11 28.12C35.52 28.12 36.67 26.97 36.67 25.56L36.67 23ZM46.91 33.24C46.91 31.82 45.76 30.68 44.35 30.68L41.79 30.68C40.37 30.68 39.23 31.82 39.23 33.24L39.23 35.8C39.23 37.21 40.37 38.36 41.79 38.36L44.35 38.36C45.76 38.36 46.91 37.21 46.91 35.8L46.91 33.24ZM46.91 23C46.91 21.58 45.76 20.44 44.35 20.44L41.79 20.44C40.37 20.44 39.23 21.58 39.23 23L39.23 25.56C39.23 26.97 40.37 28.12 41.79 28.12L44.35 28.12C45.76 28.12 46.91 26.97 46.91 25.56L46.91 23ZM57.15 33.24C57.15 31.82 56 30.68 54.59 30.68L52.03 30.68C50.61 30.68 49.47 31.82 49.47 33.24L49.47 35.8C49.47 37.21 50.61 38.36 52.03 38.36L54.59 38.36C56 38.36 57.15 37.21 57.15 35.8L57.15 33.24ZM57.15 23C57.15 21.58 56 20.44 54.59 20.44L52.03 20.44C50.61 20.44 49.47 21.58 49.47 23L49.47 25.56C49.47 26.97 50.61 28.12 52.03 28.12L54.59 28.12C56 28.12 57.15 26.97 57.15 25.56L57.15 23ZM67.39 33.24C67.39 31.82 66.24 30.68 64.83 30.68L62.27 30.68C60.85 30.68 59.71 31.82 59.71 33.24L59.71 35.8C59.71 37.21 60.85 38.36 62.27 38.36L64.83 38.36C66.24 38.36 67.39 37.21 67.39 35.8L67.39 33.24ZM67.39 23C67.39 21.58 66.24 20.44 64.83 20.44L62.27 20.44C60.85 20.44 59.71 21.58 59.71 23L59.71 25.56C59.71 26.97 60.85 28.12 62.27 28.12L64.83 28.12C66.24 28.12 67.39 26.97 67.39 25.56L67.39 23Z" />
	</g>
</svg>