<svg xmlns="http://www.w3.org/2000/svg" viewBox="0 0 75 75" width="75" height="75">
	<style>
		tspan { white-space:pre }
		.shp0 { fill: #000000 } 
	</style>
	<g id="Layer">
		<path id="Layer" class="shp0" d="M10.93 67.93C10.29 69.86 8.14 70.93 6.21 70.29C4.29 69.64 3.43 67.5 4.07 65.57C9 51.43 22.5 42 37.5 42C52.29 42 65.79 51.43 70.71 65.57C71.36 67.5 70.5 69.64 68.57 70.29C66.64 70.93 64.5 69.86 63.86 67.93C60 56.79 49.29 49.29 37.5 49.29C25.5 49.29 14.79 56.79 10.93 67.93Z" />
		<path id="Layer" fill-rule="evenodd" class="shp0" d="M37.5 3.86C46.5 3.86 53.79 11.14 53.79 20.14C53.79 29.36 46.5 36.64 37.5 36.64C28.29 36.64 21 29.36 21 20.14C21 11.14 28.29 3.86 37.5 3.86ZM28.29 20.14C28.29 25.29 32.36 29.36 37.5 29.36C42.43 29.36 46.5 25.29 46.5 20.14C46.5 15.21 42.43 11.14 37.5 11.14C32.36 11.14 28.29 15.21 28.29 20.14Z" />
	</g>
</svg>