<svg xmlns="http://www.w3.org/2000/svg" viewBox="0 0 50 50" width="50" height="50">
	<style>
		tspan { white-space:pre }
		.shp0 { fill: #000000 } 
	</style>
	<g id="Layer">
		<g id="Layer">
			<path id="Layer" fill-rule="evenodd" class="shp0" d="M38.35 27.52L47.73 36.9C48.51 37.68 48.51 38.94 47.73 39.73C46.95 40.51 45.68 40.51 44.9 39.73L35.35 30.18C33.51 31.33 31.33 32 29 32C22.37 32 17 26.63 17 20C17 13.37 22.37 8 29 8C35.63 8 41 13.37 41 20C41 22.85 40.01 25.46 38.35 27.52ZM29 28C33.42 28 37 24.42 37 20C37 15.58 33.42 12 29 12C24.58 12 21 15.58 21 20C21 24.42 24.58 28 29 28ZM1 15C1 13.9 1.68 13 2.5 13L11.5 13C12.33 13 13 13.89 13 15C13 16.1 12.32 17 11.5 17L2.5 17C1.67 17 1 16.11 1 15ZM1 27C1 25.9 1.68 25 2.5 25L11.5 25C12.33 25 13 25.89 13 27C13 28.1 12.32 29 11.5 29L2.5 29C1.67 29 1 28.11 1 27ZM1 39C1 37.9 1.66 37 2.5 37L31 37C31.83 37 32.5 37.89 32.5 39C32.5 40.1 31.84 41 31 41L2.5 41C1.67 41 1 40.11 1 39Z" />
		</g>
	</g>
</svg>