<svg xmlns="http://www.w3.org/2000/svg" viewBox="0 0 75 75" width="75" height="75">
	<style>
		tspan { white-space:pre }
		.shp0 { fill: #000000 } 
	</style>
	<g id="Layer">
		<path id="Layer" fill-rule="evenodd" class="shp0" d="M66 16.8C69.4 20.1 71.2 24.6 71.2 29.3C71.2 34 69.3 38.5 66 41.8L60.9 46.9L38.2 69.1L15.6 46.9L10.5 41.8C3.6 34.9 3.6 23.7 10.5 16.8C13.8 13.4 18.3 11.6 23 11.6C27.7 11.6 32.2 13.5 35.5 16.8L38.2 19.5L40.9 16.8C47.8 9.9 59 9.9 66 16.8ZM65.1 29.4C65.1 26.2 63.9 23.3 61.7 21.1C57.2 16.5 49.8 16.5 45.2 21.1L38.2 28.1L31.2 21.1C29 18.9 26 17.7 22.9 17.7C19.7 17.7 16.8 18.9 14.6 21.1C10 25.6 10 33 14.6 37.6L19.7 42.7L38.2 60.7L56.6 42.7L61.7 37.6C63.9 35.4 65.1 32.6 65.1 29.4Z" />
	</g>
</svg>