<svg xmlns="http://www.w3.org/2000/svg" xmlns:xlink="http://www.w3.org/1999/xlink" version="1.1" x="0px" y="0px" viewBox="0 0 100 125" enable-background="new 0 0 100 100" xml:space="preserve"><g><path fill="#000000" d="M25.926,78.238c-3.83,0-6.724,2.892-6.724,6.721c0,3.832,2.894,6.934,6.724,6.934s6.934-3.102,6.934-6.934   C32.86,81.13,29.756,78.238,25.926,78.238z"/><path fill="#000000" d="M77.338,78.238c-3.826,0-6.933,2.998-6.933,6.827c0,3.83,3.106,6.935,6.933,6.935   c3.828,0,6.931-3.104,6.931-6.935C84.269,81.236,81.166,78.238,77.338,78.238z"/><path fill="#000000" d="M97.713,51.186L97.64,27.5c0,0-0.347-7.128-6.534-7.128l-70.459,0.088l-1.444-3.499   c0,0,0.213-6.992-6.827-6.992c0,0-10.241,0-10.241,6.827l12.141-0.001c0,0,4.927,25.909,4.927,40.964   c0,3.413-3.414,10.033-3.414,10.454c0,6.613,5.367,6.825,7.254,6.825h64.429c1.887,0,3.413-1.74,3.413-3.626   s-1.526-3.413-3.413-3.413H22.617l3.413-10.24h65.005C91.035,57.758,97.713,57.799,97.713,51.186z M36.237,47.73   c0,1.886-1.527,3.413-3.414,3.413h-0.106c-1.34-0.043-2.414-0.108-3.273-0.129C26.03,50.93,26.03,50.93,26.03,47.73v-3.414   c0-1.884,1.526-3.414,3.414-3.414h3.38c1.887,0,3.414,1.529,3.414,3.414V47.73z M36.237,34.077c0,1.885-1.527,3.414-3.414,3.414   H29.41c-1.887,0-3.414-1.529-3.414-3.414v-3.414c0-1.885,1.527-3.413,3.414-3.413h3.413c1.887,0,3.414,1.528,3.414,3.413V34.077z    M49.891,47.73c0,1.886-1.527,3.413-3.414,3.413h-3.414c-1.887,0-3.414-1.527-3.414-3.413v-3.414c0-1.884,1.527-3.414,3.414-3.414   h3.414c1.887,0,3.414,1.529,3.414,3.414V47.73z M49.891,34.077c0,1.885-1.527,3.414-3.414,3.414h-3.414   c-1.887,0-3.414-1.529-3.414-3.414v-3.414c0-1.885,1.527-3.413,3.414-3.413h3.414c1.887,0,3.414,1.528,3.414,3.413V34.077z    M63.545,47.73c0,1.886-1.527,3.413-3.414,3.413h-3.413c-1.887,0-3.414-1.527-3.414-3.413v-3.414c0-1.884,1.527-3.414,3.414-3.414   h3.413c1.887,0,3.414,1.529,3.414,3.414V47.73z M63.545,34.077c0,1.885-1.527,3.414-3.414,3.414h-3.413   c-1.887,0-3.414-1.529-3.414-3.414v-3.414c0-1.885,1.527-3.413,3.414-3.413h3.413c1.887,0,3.414,1.528,3.414,3.413V34.077z    M77.198,47.73c0,1.886-1.526,3.413-3.413,3.413h-3.414c-1.887,0-3.413-1.527-3.413-3.413v-3.414c0-1.884,1.526-3.414,3.413-3.414   h3.414c1.887,0,3.413,1.529,3.413,3.414V47.73z M77.198,34.077c0,1.885-1.526,3.414-3.413,3.414h-3.414   c-1.887,0-3.413-1.529-3.413-3.414v-3.414c0-1.885,1.526-3.413,3.413-3.413h3.414c1.887,0,3.413,1.528,3.413,3.413V34.077z    M90.853,47.73c0,1.886-1.527,3.413-3.414,3.413h-3.413c-1.887,0-3.413-1.527-3.413-3.413v-3.414c0-1.884,1.526-3.414,3.413-3.414   h3.413c1.887,0,3.414,1.529,3.414,3.414V47.73z M90.853,34.077c0,1.885-1.527,3.414-3.414,3.414h-3.413   c-1.887,0-3.413-1.529-3.413-3.414v-3.414c0-1.885,1.526-3.413,3.413-3.413h3.413c1.887,0,3.414,1.528,3.414,3.413V34.077z"/></g><text x="0" y="115" fill="#000000" font-size="5px" font-weight="bold" font-family="'Helvetica Neue', Helvetica, Arial-Unicode, Arial, Sans-serif">Created by Rémy Médard</text><text x="0" y="120" fill="#000000" font-size="5px" font-weight="bold" font-family="'Helvetica Neue', Helvetica, Arial-Unicode, Arial, Sans-serif">from the Noun Project</text></svg>