<svg xmlns="http://www.w3.org/2000/svg" viewBox="0 0 75 75" width="75" height="75">
	<style>
		tspan { white-space:pre }
		.shp0 { fill: #000000 } 
	</style>
	<g id="Layer">
		<path id="Layer" fill-rule="evenodd" class="shp0" d="M66 19.8C69.4 23.1 71.2 27.6 71.2 32.3C71.2 37 69.3 41.5 66 44.8L60.9 49.9L38.2 72.1L15.6 49.9L10.5 44.8C3.6 37.9 3.6 26.7 10.5 19.8C13.8 16.4 18.3 14.6 23 14.6C27.7 14.6 32.2 16.5 35.5 19.8L38.2 22.5L40.9 19.8C47.8 12.9 59 12.9 66 19.8ZM65.1 32.4C65.1 29.2 63.9 26.3 61.7 24.1C57.2 19.5 49.8 19.5 45.2 24.1L38.2 31.1L31.2 24.1C29 21.9 26 20.7 22.9 20.7C19.7 20.7 16.8 21.9 14.6 24.1C10 28.6 10 36 14.6 40.6L19.7 45.7L38.2 63.7L56.6 45.7L61.7 40.6C63.9 38.4 65.1 35.6 65.1 32.4Z" />
	</g>
</svg>