<svg xmlns="http://www.w3.org/2000/svg" xmlns:xlink="http://www.w3.org/1999/xlink" xml:space="preserve" version="1.1" style="shape-rendering:geometricPrecision;text-rendering:geometricPrecision;image-rendering:optimizeQuality;" viewBox="0 0 313 388.75" x="0px" y="0px" fill-rule="evenodd" clip-rule="evenodd"><defs><style type="text/css">
   
    .fil1 {fill:black}
    .fil0 {fill:black;fill-rule:nonzero}
   
  </style></defs><g><path class="fil0" d="M33 299c-3,9 -13,14 -22,11 -9,-3 -13,-13 -10,-22 23,-66 86,-110 156,-110 69,0 132,44 155,110 3,9 -1,19 -10,22 -9,3 -19,-2 -22,-11 -18,-52 -68,-87 -123,-87 -56,0 -106,35 -124,87z"/><path class="fil1" d="M157 0c42,0 76,34 76,76 0,43 -34,77 -76,77 -43,0 -77,-34 -77,-77 0,-42 34,-76 77,-76zm0 34c23,0 42,19 42,42 0,24 -19,43 -42,43 -24,0 -43,-19 -43,-43 0,-23 19,-42 43,-42z"/></g><text x="0" y="326" fill="#000000" font-size="5px" font-weight="bold" font-family="'Helvetica Neue', Helvetica, Arial-Unicode, Arial, Sans-serif">Created by Iconnic</text><text x="0" y="331" fill="#000000" font-size="5px" font-weight="bold" font-family="'Helvetica Neue', Helvetica, Arial-Unicode, Arial, Sans-serif">from the Noun Project</text></svg>